<svg version="1" xmlns="http://www.w3.org/2000/svg" width="613.333" height="613.333" viewBox="0 0 460.000000 460.000000"><path d="M106 43.5c-6.1 1.6-27.2 13.8-29.2 16.9-.4.6-.8.8-.8.4 0-.3-1.5.8-3.3 2.5-1.8 1.8-6.6 6.4-10.7 10.3-4.1 3.9-8.8 8.8-10.5 11-1.6 2.1-4.1 5-5.5 6.4-1.4 1.4-2.7 2.9-2.9 3.5-.2.5-1.5 2.8-3 5s-3.6 5.9-4.6 8.2c-1.1 2.4-2.5 4.1-3.2 3.8-.7-.2-1 .2-.7.9.3.7-.8 4.2-2.5 7.7-1.6 3.5-3.3 7.6-3.6 9.1-.4 1.7-1.2 2.5-1.9 2.1-.8-.4-.8-.2.1.7 1.4 1.5.6 4.3-1 3.3-.6-.3-.7-.1-.3.5.6 1-.4 6.5-2 11.2-.3.8-.7 5.3-1 10-.6 10.6-.6 9.1.2 18 .3 4.1.6 9.8.7 12.7.1 2.8.5 4.9.9 4.7.5-.4 1.8 4 2.3 7.6 0 .3.3 1 .7 1.6.4.6.9 2.5 1 4.3.1 1.7.6 3.1 1.1 3.1.5 0 .7.9.4 2-.3 1-.2 1.8.2 1.7.3-.1.6 0 .6.3s.8 1.6 1.8 3c2 2.9 2.3 6.5.5 5.4-.8-.4-1-.3-.5.2s1.4.9 2 .9c.7 0 1.3.9 1.6 2 .2 1.1.8 2.3 1.3 2.6.6.4.7 1.2.2 2-1 1.7-1.5 4.3-.6 3.4.4-.4.7-1.1.7-1.6 0-2 2-1.3 2.3.8.2 1.3.7 2.3 1.2 2.3s.7.6.4 1.4c-.3.7.2 1.6 1 1.9.9.4 1.6 1.3 1.6 2.1s.3 1.6.8 1.8c1.6.7 4.2 6.7 3.6 8.5-.5 1.5-.4 1.6.6.3s1.3-1.3 2.3.4c1.2 1.9 5.9 8.2 7.6 10.2.6.7.6 1.5-.1 2.2-.6.6-.6 1.2.3 1.7.8.5 1 .4.5-.3-.4-.7-.2-1.2.3-1.2.6 0 1.1.4 1.1.8 0 .5 1.6 2.5 3.6 4.5 3.9 3.8 5.7 9.3 4.1 12.2-.6 1.2-.6 1.6.1 1.1.5-.3 1.2.8 1.5 2.7.9 6.1 5.8 22.9 7.4 25.3.8 1.3 1.2 2.4.7 2.4-.4 0-.3.5.4 1.2s1.2 1.9 1.2 2.7c0 .9 1.3 4.2 2.9 7.3 1.8 3.6 2.5 5.8 1.8 5.9-.7 0-.2.4 1.1.9 1.2.5 2.2 1.5 2.2 2.2 0 .7.9 2.4 2 3.8s2 3.1 2 3.7c0 .7.9 2.2 2 3.3 1.2 1.2 1.8 2.5 1.5 3.1-.4.5-.1.8.7.7.7-.2 1.2.5 1.1 1.5 0 1 .1 1.6.5 1.3.3-.3 1.9 1.3 3.6 3.7 1.7 2.3 3.8 5.1 4.8 6.1s1.5 2.3 1.2 2.8c-.3.5 0 .7.8.6.8-.2 1.3.6 1.2 1.8 0 1.1.5 2.1 1.2 2.1s1.1-.4.8-.9c-.3-.4 0-.8.5-.8.6 0 1.1.3 1.1.8 0 .4 1.8 2.5 3.9 4.7 2.2 2.2 3.7 4.3 3.5 4.6-.2.4.7 1 2 1.3 1.4.3 2.8 1.5 3.1 2.6.4 1.1 1.1 1.8 1.6 1.5.5-.4.9.1.9 1s.4 1.4 1 1c.5-.3 1.8.3 3 1.5 1.1 1.1 2.1 1.9 2.3 1.8.7-.7 6.5 4.7 6 5.5-.4.6-.1.7.7.2.8-.5 1.8-.1 2.6 1 .8 1 1.6 1.6 2 1.3.3-.3 2.9.9 5.7 2.8 2.9 1.9 6.2 3.7 7.5 4 1.2.4 2.2 1.1 2.2 1.6s.6.8 1.3.5c.6-.2 2.4.4 3.8 1.4 1.4 1 2.9 1.6 3.3 1.2.3-.3.6-.2.6.3s1 1 2.1 1.1c1.2.1 3.1 1 4.2 2s1.7 1.2 1.3.5c-1.1-1.9.1-1.4 2.5 1 1.2 1.3 1.9 1.7 1.5 1-.9-1.5-.5-1.5 3.1-.1 1.5.6 4.2 1.3 5.8 1.6 1.7.3 3.5.8 4 1.2.6.4 2.6.8 4.5 1 4.4.4 4.6.6 2.9 2.8-1.1 1.5-1 1.5.9-.1 1.7-1.4 2.2-1.6 2.2-.5 0 .8.3 1 .8.4 1.1-1.5 4.4-1.5 3.9-.1-.3.7.1 1.3.8 1.3.7 0 1.1-.6.8-1.4-.4-.9 0-1.1 1.1-.7.9.3 1.4.9 1.1 1.3-.2.4.2.8 1 .8s1.2-.4.9-.8c-.3-.5 1.5-.6 3.8-.3 2.4.3 5.5.6 7 .6 1.8 0 2.5.4 2.1 1.2-.4.6 0 .5.9-.2 2.4-1.9 9.3-1.2 9.3 1 0 .9.3 2 .7 2.3.3.4.5-.5.4-2-.3-1.8.1-2.5 1-2.1.7.3 1.6.1 1.9-.4.3-.6 1.6 0 2.8 1.3 1.2 1.3 1.6 1.5.9.6-1.6-2-.5-2.5 4.8-2.4 2.5 0 3.4.4 3.2 1.4-.2 1.1 0 1.2 1.1.3.8-.7 1.7-.9 2.1-.5.4.4.4 0 .1-.8-.5-1.3 0-1.6 1.9-1.4 1.4.2 2.9-.1 3.2-.6.3-.6 1.2-.5 2.2.3.9.7 1.3.8.9.2-.6-1 2.9-2.3 7.5-2.8.3-.1 1-.4 1.4-.8.4-.4 1.4-.2 2.2.5 1.3 1 1.4.9.7-.2-.6-1.1-.2-1.3 1.9-.7 1.8.4 2.5.3 2.1-.4-.5-.9.9-1.5 1.8-.8.2.2 1.1-.3 2-1 .9-.8 2.1-1.1 2.7-.7.5.3 1 .3 1-.2 0-.4 1.4-1.4 3.2-2.2 2.8-1.3 3.2-1.2 4.6.5 1.4 1.9 1.5 1.9.8 0-.8-2.4 1.3-3.9 3.3-2.3 1.2.9 1.3.9.8 0-.9-1.5 2.8-3.7 4.5-2.7.7.4.8.3.4-.4s-.2-1.2.4-1.2c.6 0 2.8-1.1 5-2.5s4-2.3 4-2c0 .3 1-.3 2.2-1.4 1.1-1.1 2.5-1.8 3-1.5.4.3.8 0 .8-.6s.4-.9.8-.6c.5.3 1.5-.4 2.2-1.5.8-1 2.3-1.9 3.3-1.9 1.1 0 1.5-.4 1.1-1.2-.5-.8-.2-.9 1-.5 1 .4 1.5.3 1.1-.3-.3-.5 1.4-2.2 3.7-3.7 2.4-1.5 6.8-5.3 9.8-8.3 3-3 5.8-5.4 6.3-5.2.5.1.6-.2.3-.7-.8-1.2 4.8-5.3 5.8-4.4.4.4.4 0 .1-.9-.4-.9.1-2.1 1.2-2.9 1-.8 2.6-2.5 3.4-3.9.9-1.4 2.7-3.7 4-5.1 1.3-1.5 2.5-3.3 2.7-4 .5-2.1 2.3-3.9 3.2-3.4.5.3 1.2 0 1.6-.6.4-.8.3-.9-.4-.5s-1.2.3-1.2-.3c0-.5.3-1.1.8-1.3.9-.4 3.8-5.2 6.3-10.6 1.1-2.3 2.2-4.2 2.5-4.2.3 0 .2.5-.2 1.2s-.3.8.5.4c.6-.4.9-1.1.6-1.6-.3-.4.4-2.5 1.4-4.7 1.1-2.1 2.2-5.1 2.6-6.6.3-1.7 1-2.5 1.7-2.1.7.4.8.3.4-.5-1-1.5.3-5.3 1.5-4.5.5.3.6 1 .3 1.6-.5.7-.2.8.5.3.9-.5 1-1 .2-1.8-1.3-1.3-1.5-4.1-.2-3.3.4.3.7-.6.5-1.9-.1-1.4.1-2.5.6-2.5.4 0 .7-.6.7-1.2-.1-.7.9-5.6 2.2-10.8 1.2-5.2 2.4-10.9 2.5-12.5.1-1.8.6-2.9 1.4-2.8.6.2 1.1 0 1-.5-.3-1.5 1.5-4.2 2.7-4.2.8 0 1.7-.5 2.1-1.2.5-.7.2-.9-.7-.4-.8.4-.5 0 .5-.8 1.1-.9 1.7-1.6 1.3-1.6-.4 0 .1-1 1.3-2.2 1.1-1.2 2-2.8 2-3.5 0-.7.7-1.3 1.6-1.3.9 0 1.2-.5.8-1.2-.5-.8-.2-.9 1-.5.9.4 1.4.3 1.1-.2-.7-1.2 1.5-6.1 2.7-6.1.5 0 .6.6.2 1.2-.4.8-.3 1 .2.5s.9-1.2.9-1.5c.2-2 1.8-5.2 2.6-5.2.6 0 .7-.5.4-1-.3-.6-.1-1 .6-1s1-.3.6-.6c-.3-.4-.1-1.2.6-2 2.5-2.8 3.2-4 3.5-5.7.5-2.9 3.8-7.8 4.7-6.9.5.4.5.1.1-.6-.4-.6-.4-1.8.1-2.5.4-.6.8-1.5.9-2 .1-.4.2-1 .3-1.5.1-.4.5-.1 1 .6.6.9.8.5.8-1.5 0-2.6 4-14.1 5.3-15.3.3-.3.5-1.1.6-1.8.1-.6.2-2.1.3-3.1 0-1.1.8-2.7 1.7-3.5.8-.9 1.1-1.6.5-1.6-1.6 0-.2-5.2 1.8-6.8 1.4-1.1 1.4-1.1-.3-.6-1.5.6-1.7.4-.9-1.2.6-1 .8-2.5.5-3.3-.3-1 0-1.1.9-.5 1.1.6 1.2.5.2-.8-.7-.8-1-1.8-.7-2.1.6-.5.6-7 .1-25.4-.1-2.9-.4-5.3-.7-5.3-.6 0-1.2-3.6-1.4-8.7 0-1.7-.4-2.9-.8-2.6-.7.4-1.2-2-.9-4 0-.4-.4-.7-.9-.7-.6 0-1-.9-1-1.9 0-1.1-.5-3.2-1.2-4.8-.6-1.5-1-3.4-.9-4.1.1-.6-.2-1.2-.7-1.2-.4 0-2.3-3.2-4.2-7-1.9-3.9-3.7-7-4.2-7-.4 0-.8-.6-.8-1.4 0-1.5-6.1-10.7-9.7-14.6-1.3-1.4-2.3-2.8-2.3-3.1 0-.3-3.2-3.9-7-7.9-3.9-4-7-7.8-7-8.3 0-.6-.3-.8-.6-.4-.3.3-1.8-.6-3.3-2.1-4.6-4.6-9-8.2-10-8.2-.5 0-1.1-.3-1.3-.8-.6-1.4-7.7-6.2-9.2-6.2-.9 0-1.6-.4-1.6-.9s-3.8-2.8-8.5-5.1c-8.1-4-15.3-5.6-17.1-3.8-1.2 1.3 1.7 6.7 6.3 11.4 3.7 3.9 4.2 4.8 3.1 6.2-1.2 1.4-1 1.4 1.2.2 1.4-.7 2.2-.9 1.8-.5-.4.4.4 1.9 1.8 3.4 1.3 1.4 2.7 3.4 3 4.3.3 1 .9 1.8 1.4 1.8.4 0 .7 1.3.6 2.9-.1 1.7.1 2.8.6 2.5.9-.6 3.9 5.1 3.1 6-.4.3-.1.6.6.6.8 0 1.1.8.8 2-.3 1-.1 2 .3 2.2 1.5.5 1.6 6.3.2 6-.8-.1-1.1.2-.7.7.3.6 1.2.8 2 .4 1.1-.3 1.5.2 1.6 1.8.1 2.9.5 4.8 1.5 7.3.6 1.5.4 1.7-.7 1.1-1.1-.6-1.2-.5-.1.6.6.7 1.2 2.1 1.2 3.2 0 1.2-.4 1.6-1.2 1.1-1-.6-.9-.3 0 .8 1.3 1.6 2.4 11.1 1.3 10.3-.3-.1-.6.8-.6 2.1s.3 2.4.6 2.4c.4 0-.4 9.8-1 10.7 0 .2-.1 1.9-.1 3.9 0 1.9-.4 3.3-.9 3-.4-.3-.6.6-.3 1.9.2 1.4.1 3.3-.4 4.2-.4 1-.8 2.5-.8 3.4-.1.9-.8 2.4-1.6 3.4-.9 1.1-1 1.6-.2 1.1.7-.4 1.2-.1 1.2.8s-.4 1.6-1 1.6c-.5 0-.7.8-.4 1.7.4 1-.5.5-2-1.2-1.4-1.7-2.5-3.5-2.6-4-.1-4.1-37.8-40.5-41.9-40.5-.6 0-1.1-.3-1.1-.8 0-.7-1-1.3-6.6-4.2-1.6-.8-3.1-1.7-3.4-2-.3-.3-2.2-1.4-4.2-2.4-2.1-1-3.5-2.3-3.1-2.9.3-.6.1-.7-.5-.4-.5.4-4.5-.8-8.9-2.6-9.4-4.1-27.7-9.4-35.3-10.3-3-.3-5.8-.8-6.2-1-2.7-1.6-32.1-2.3-40.8-1-2.5.4-5.8.9-7.5 1.1-9.8 1.3-12.9 2-23.4 5.1-6.4 2-13.5 4.4-15.8 5.5-2.4 1-4.9 1.9-5.7 1.9-.8 0-1.6.4-1.8.9-.2.5-3.2 2.3-6.8 4.1-3.6 1.8-6.7 3.5-7 3.9-.7.8-3.7 2.6-7.7 4.7-1.8.9-3.3 2-3.3 2.5s-.6.9-1.3.9c-.6 0-2.5 1.4-4.1 3.1-1.6 1.7-3.5 2.8-4.3 2.5-.8-.3-1.2-.2-.9.3.6.9-7.5 8.7-8.6 8.3-.5-.1-.7.1-.5.6.1.4-2.6 3.6-6 7-3.5 3.5-6.3 6.7-6.3 7 0 .4-1.3 2.2-3 4-1.6 1.8-3 3.5-3 3.8 0 .3-.5 1-1 1.7-.6.7-1.9 2.3-3.1 3.7-1.1 1.4-1.8 2-1.5 1.4.3-.6 0-2.8-.6-5-1.5-5.8-1.7-8.7-.6-10.2.8-.9.7-1.1-.6-.6-1.2.5-1.6 0-1.6-2.2-.1-1.6-.4-4.7-.7-6.9-.4-2.2-.7-10.1-.6-17.5.2-19.3.1-18 2.1-17.4 1.6.5 1.6.5-.1-.6-1-.6-1.4-1.6-1-2.3.8-1.3 1.4-3.4 1.5-5.7.1-.8.8-2.1 1.7-2.8.9-.8 1-1.1.4-.7-.8.4-1.3 0-1.3-1 0-.9.4-1.4.9-1.1.4.3.6-.6.3-1.9-.2-1.5 0-2.5.7-2.5s.9.5.5 1.2c-.5.7-.3.8.5.3.9-.5.9-1.1.3-1.7-1.2-1.2.6-6 1.9-5.2.5.3.7-.1.4-.8-.7-1.8 3.7-10.4 5.2-10.1.7.2 1-.4.7-1.2-.4-.8-.1-1.5.5-1.5s1-.6.8-1.3c-.1-.6.5-1.1 1.4-1.1.9.1 1.6-.6 1.5-1.5 0-.9.5-1.5 1.2-1.4.6.2 1.2-.2 1.2-.8 0-.6 1.8-3.1 4-5.6 3.6-4.1 5.3-9.2 3.3-9.4-.5 0-1.5-.2-2.3-.3-.8-.2-3.5.2-6 .9z"/><path d="M351.5 59.9c-.3.5-.2 1.2.3 1.5.5.3.9-.1.9-.9 0-1.7-.3-1.9-1.2-.6zM96.6 71.7c-.6 1.4-.5 1.5.5.6.7-.7 1-1.5.7-1.8-.3-.3-.9.2-1.2 1.2zM361.5 72.9c-.3.5-.2 1.2.3 1.5.5.3.9-.1.9-.9 0-1.7-.3-1.9-1.2-.6zM99.6 76.2c.3.5 1 .6 1.5.3 1.3-.9 1.1-1.2-.6-1.2-.8 0-1.2.4-.9.9zM94.5 84c-.3.6.1.7.9.4 1.8-.7 2.1-1.4.7-1.4-.6 0-1.3.4-1.6 1zM371 111.9c0 .6.4 1.3 1 1.6.6.3.7-.1.4-.9-.7-1.8-1.4-2.1-1.4-.7zM429 226.1c0 .5.5.7 1 .4.6-.3 1-.8 1-1.1 0-.2-.4-.4-1-.4-.5 0-1 .5-1 1.1zM421.6 239.8c-.3.5.1.9.9.9s1.2-.4.9-.9c-.3-.4-.7-.8-.9-.8-.2 0-.6.4-.9.8zM37.3 243.5c0 .8.4 1.2.9.9.5-.3.6-1 .3-1.5-.9-1.3-1.2-1.1-1.2.6zM47.5 254c-.3.5-.1 1 .4 1 .6 0 1.1-.5 1.1-1 0-.6-.2-1-.4-1-.3 0-.8.4-1.1 1zM411.6 253.9c-.9 1.5 2.3 3.6 3.5 2.4.8-.8.6-1.1-.7-1-1.1.1-1.8-.4-1.6-1.1.2-1.4-.4-1.6-1.2-.3zM50.4 259.8c.4.3 1.4.7 2.2.8.9.1 1.3 0 1-.4-.4-.3-1.4-.7-2.2-.8-.9-.1-1.3 0-1 .4zM407 259.4c0 .2.7.7 1.6 1 .8.3 1.2.2.9-.4-.6-1-2.5-1.4-2.5-.6zM399 270.4c0 .2.8 1 1.8 1.7 1.5 1.3 1.6 1.2.3-.4s-2.1-2.1-2.1-1.3zM403.5 270.9c-.3.5-.2 1.2.3 1.5.5.3.9-.1.9-.9 0-1.7-.3-1.9-1.2-.6zM63.5 275c-.4.6-1.1.7-1.7.4-.7-.4-.8-.2-.4.5.6.9 1.1.9 2.2 0 1.4-1.1 1.8-1.9 1-1.9-.3 0-.8.5-1.1 1zM395.5 276c.3.5.8 1 1.1 1 .2 0 .4-.5.4-1 0-.6-.5-1-1.1-1-.5 0-.7.4-.4 1zM395.5 280c-.3.5-.1 1 .4 1 .6 0 1.1-.5 1.1-1 0-.6-.2-1-.4-1-.3 0-.8.4-1.1 1zM395.3 284.5c0 .8.4 1.2.9.9.5-.3.6-1 .3-1.5-.9-1.3-1.2-1.1-1.2.6zM391.6 296.2c.3.5 1 .6 1.5.3 1.3-.9 1.1-1.2-.6-1.2-.8 0-1.2.4-.9.9zM391.5 302c.3.5.8 1 1.1 1 .2 0 .4-.5.4-1 0-.6-.5-1-1.1-1-.5 0-.7.4-.4 1zM390.6 308.2c.3.5 1 .6 1.5.3 1.3-.9 1.1-1.2-.6-1.2-.8 0-1.2.4-.9.9zM385.5 318c-.3.5-.1 1 .4 1 .6 0 1.1-.5 1.1-1 0-.6-.2-1-.4-1-.3 0-.8.4-1.1 1zM379.6 334.2c.3.5 1 .6 1.5.3 1.3-.9 1.1-1.2-.6-1.2-.8 0-1.2.4-.9.9zM89 343.9c0 .6.4 1.3 1 1.6.6.3.7-.1.4-.9-.7-1.8-1.4-2.1-1.4-.7zM367.5 350c-.3.5-.1 1 .4 1 .6 0 1.1-.5 1.1-1 0-.6-.2-1-.4-1-.3 0-.8.4-1.1 1zM98 357.4c0 .2.8 1 1.8 1.7 1.5 1.3 1.6 1.2.3-.4s-2.1-2.1-2.1-1.3zM363 358.1c0 .5.5.7 1 .4.6-.3 1-.8 1-1.1 0-.2-.4-.4-1-.4-.5 0-1 .5-1 1.1zM102 363.4c0 .2.8 1 1.8 1.7 1.5 1.3 1.6 1.2.3-.4s-2.1-2.1-2.1-1.3zM111.3 370.5c0 .8.4 1.2.9.9.5-.3.6-1 .3-1.5-.9-1.3-1.2-1.1-1.2.6zM353.3 370.5c0 .8.4 1.2.9.9.5-.3.6-1 .3-1.5-.9-1.3-1.2-1.1-1.2.6zM105 370.4c0 .2.8 1 1.8 1.7 1.5 1.3 1.6 1.2.3-.4s-2.1-2.1-2.1-1.3zM346.5 372c-.3.6.1.7.9.4 1.8-.7 2.1-1.4.7-1.4-.6 0-1.3.4-1.6 1zM343.5 376c.3.5.8 1 1.1 1 .2 0 .4-.5.4-1 0-.6-.5-1-1.1-1-.5 0-.7.4-.4 1zM118.7 378.1c.7.9 1 1.9.6 2.2-.3.4-.1.7.5.7 1.7 0 1.5-1.6-.5-3.1-1.6-1.2-1.7-1.2-.6.2zM341 382c0 .5.5 1 1.1 1 .5 0 .7-.5.4-1-.3-.6-.8-1-1.1-1-.2 0-.4.4-.4 1zM333.6 384.7c-.6 1.4-.5 1.5.5.6.7-.7 1-1.5.7-1.8-.3-.3-.9.2-1.2 1.2zM337.3 385.5c0 .8.4 1.2.9.9.5-.3.6-1 .3-1.5-.9-1.3-1.2-1.1-1.2.6zM325 394.1c0 .5.5.7 1 .4.6-.3 1-.8 1-1.1 0-.2-.4-.4-1-.4-.5 0-1 .5-1 1.1zM140.6 395.8c-.3.5.1.9.9.9s1.2-.4.9-.9c-.3-.4-.7-.8-.9-.8-.2 0-.6.4-.9.8zM315.5 396.1c-.3.4.2.6 1 .5 2.1-.3 2.8-1.3 1-1.3-.9 0-1.8.4-2 .8zM311.9 398.2c-.5.9-.5 4.8-.1 4.3.6-.6 1.1-4.5.5-4.5-.2 0-.4.1-.4.2zM149 399.9c0 .6.4 1.3 1 1.6.6.3.7-.1.4-.9-.7-1.8-1.4-2.1-1.4-.7zM154.7 402.1c.7.7 1.5 1 1.8.7.3-.3-.2-.9-1.2-1.2-1.4-.6-1.5-.5-.6.5zM304.6 403.5c-1.1.8-1.5 1.5-.9 1.5s1.6-.7 2.3-1.5c1.6-1.9 1.1-1.9-1.4 0zM159 404.4c0 .2.9.6 2 .9 1.1.3 1.8.1 1.4-.4-.5-.9-3.4-1.3-3.4-.5zM148.5 406c-.3.6.1.7.9.4 1.8-.7 2.1-1.4.7-1.4-.6 0-1.3.4-1.6 1zM157.6 407.3c.3 1 .9 1.5 1.2 1.2.3-.3 0-1.1-.7-1.8-1-.9-1.1-.8-.5.6zM301.5 408c.2 2.7 1 3.3 1.2 1 .1-1.1-.2-2.2-.6-2.4-.4-.3-.7.4-.6 1.4zM164 407.4c0 .2.8 1 1.8 1.7 1.5 1.3 1.6 1.2.3-.4s-2.1-2.1-2.1-1.3zM291.5 407.7c.3.3 0 1.1-.5 1.8-.7.8-.5 1.2.4 1.2 1.4 0 1.6-2.2.3-3.2-.4-.3-.5-.2-.2.2zM287.3 410.5c0 .8.4 1.2.9.9.5-.3.6-1 .3-1.5-.9-1.3-1.2-1.1-1.2.6zM169.6 414.2c.3.5 1 .6 1.5.3 1.3-.9 1.1-1.2-.6-1.2-.8 0-1.2.4-.9.9zM175.6 414.2c.3.5 1 .6 1.5.3 1.3-.9 1.1-1.2-.6-1.2-.8 0-1.2.4-.9.9zM182.7 414.1c.7.7 1.5 1 1.8.7.3-.3-.2-.9-1.2-1.2-1.4-.6-1.5-.5-.6.5zM276.6 416.2c.3.5 1 .6 1.5.3 1.3-.9 1.1-1.2-.6-1.2-.8 0-1.2.4-.9.9zM175.4 417.8c.4.3 1.4.7 2.2.8.9.1 1.3 0 1-.4-.4-.3-1.4-.7-2.2-.8-.9-.1-1.3 0-1 .4zM185.6 417.9c.9.9 3.4.9 3.4.1 0-.5-.9-.8-2-.7-1 .1-1.7.3-1.4.6zM281 418c0 .5.5 1 1.1 1 .5 0 .7-.5.4-1-.3-.6-.8-1-1.1-1-.2 0-.4.4-.4 1zM202 419.4c0 .2.8 1 1.8 1.7 1.5 1.3 1.6 1.2.3-.4s-2.1-2.1-2.1-1.3zM215.4 422.1c-.2 3.5.5 3.3 1.2-.5.2-1.4.1-2.6-.3-2.6-.5 0-.9 1.4-.9 3.1zM229.3 420.7c0 .9.4 1 1.4.2.7-.6 1.3-1.2 1.3-1.4 0-.1-.6-.2-1.3-.2-.8 0-1.4.6-1.4 1.4zM238.6 421.8c-.3.5.1.9.9.9s1.5-.4 1.5-.9c0-.4-.4-.8-.9-.8-.6 0-1.2.4-1.5.8zM263.5 422c.3.5.8 1 1.1 1 .2 0 .4-.5.4-1 0-.6-.5-1-1.1-1-.5 0-.7.4-.4 1zM232.6 424.2c.3.5 1 .6 1.5.3 1.3-.9 1.1-1.2-.6-1.2-.8 0-1.2.4-.9.9zM250.6 424.2c.3.5 1 .6 1.5.3 1.3-.9 1.1-1.2-.6-1.2-.8 0-1.2.4-.9.9zM227.5 426c.3.5.8 1 1.1 1 .2 0 .4-.5.4-1 0-.6-.5-1-1.1-1-.5 0-.7.4-.4 1zM243.5 426c-.3.5-.1 1 .4 1 .6 0 1.1-.5 1.1-1 0-.6-.2-1-.4-1-.3 0-.8.4-1.1 1zM220.7 428.1c.7.7 1.5 1 1.8.7.3-.3-.2-.9-1.2-1.2-1.4-.6-1.5-.5-.6.5z"/></svg>